HIERARCHY
ROOT Hips
{
	OFFSET -0.217368 -24.078918 2.858379
	CHANNELS 6 Xposition Yposition Zposition Zrotation Yrotation Xrotation
	JOINT LeftUpLeg
	{
		OFFSET 5.858135 -8.228001 -1.766408
		CHANNELS 3 Zrotation Yrotation Xrotation
		JOINT LeftLeg
		{
			OFFSET -6.030973 -9.051329 -1.354253
			CHANNELS 3 Zrotation Yrotation Xrotation
			JOINT LeftFoot
			{
				OFFSET 0.443945 12.440356 -3.838522
				CHANNELS 3 Zrotation Yrotation Xrotation
				JOINT LeftToe
				{
					OFFSET 17.299986 -0.000006 0.000006
					CHANNELS 3 Zrotation Yrotation Xrotation
					End Site
					{
						OFFSET 0.000000 0.000000 0.000000
					}
				}
			}
		}
	}
	JOINT RightUpLeg
	{
		OFFSET 0.103458 1.857829 -10.548508
		CHANNELS 3 Zrotation Yrotation Xrotation
		JOINT RightLeg
		{
			OFFSET 43.500046 -0.000027 0.000013
			CHANNELS 3 Zrotation Yrotation Xrotation
			JOINT RightFoot
			{
				OFFSET 42.372257 0.000000 -0.000004
				CHANNELS 3 Zrotation Yrotation Xrotation
				JOINT RightToe
				{
					OFFSET 17.299995 -0.000005 0.000013
					CHANNELS 3 Zrotation Yrotation Xrotation
					End Site
					{
						OFFSET 0.000000 0.000000 0.000000
					}
				}
			}
		}
	}
	JOINT Spine
	{
		OFFSET 6.901965 -2.603728 -0.000004
		CHANNELS 3 Zrotation Yrotation Xrotation
		JOINT Spine1
		{
			OFFSET 12.588104 -0.000006 -0.000004
			CHANNELS 3 Zrotation Yrotation Xrotation
			JOINT Spine2
			{
				OFFSET 12.343203 0.000011 0.000026
				CHANNELS 3 Zrotation Yrotation Xrotation
				JOINT Neck
				{
					OFFSET 25.832888 0.000002 -0.000025
					CHANNELS 3 Zrotation Yrotation Xrotation
					JOINT Head
					{
						OFFSET 11.766613 -0.000025 0.000014
						CHANNELS 3 Zrotation Yrotation Xrotation
						End Site
						{
							OFFSET 0.000000 0.000000 0.000000
						}
					}
				}
				JOINT LeftShoulder
				{
					OFFSET 19.745892 -1.480383 6.000091
					CHANNELS 3 Zrotation Yrotation Xrotation
					JOINT LeftArm
					{
						OFFSET 11.284117 -0.000032 -0.000012
						CHANNELS 3 Zrotation Yrotation Xrotation
						JOINT LeftForeArm
						{
							OFFSET 33.000050 0.000008 0.000040
							CHANNELS 3 Zrotation Yrotation Xrotation
							JOINT LeftHand
							{
								OFFSET 25.199986 0.000029 0.000006
								CHANNELS 3 Zrotation Yrotation Xrotation
								JOINT LeftThumb1
								{
									OFFSET 25.199986 0.000029 0.000006
									CHANNELS 3 Zrotation Yrotation Xrotation
									JOINT LeftThumb2
									{
										OFFSET 25.199986 0.000029 0.000006
										CHANNELS 3 Zrotation Yrotation Xrotation
										JOINT LeftThumb3
										{
											OFFSET 25.199986 0.000029 0.000006
											CHANNELS 3 Zrotation Yrotation Xrotation
											End Site
											{
												OFFSET 0.000000 0.000000 0.000000
											}
										}
									}
								}
								JOINT LeftIndex1
								{
									OFFSET 25.199986 0.000029 0.000006
									CHANNELS 3 Zrotation Yrotation Xrotation
									JOINT LeftIndex2
									{
										OFFSET 25.199986 0.000029 0.000006
										CHANNELS 3 Zrotation Yrotation Xrotation
										JOINT LeftIndex3
										{
											OFFSET 25.199986 0.000029 0.000006
											CHANNELS 3 Zrotation Yrotation Xrotation
											End Site
											{
												OFFSET 0.000000 0.000000 0.000000
											}
										}
									}
								}
								JOINT LeftMiddle1
								{
									OFFSET 25.199986 0.000029 0.000006
									CHANNELS 3 Zrotation Yrotation Xrotation
									JOINT LeftMiddle2
									{
										OFFSET 25.199986 0.000029 0.000006
										CHANNELS 3 Zrotation Yrotation Xrotation
										JOINT LeftMiddle3
										{
											OFFSET 25.199986 0.000029 0.000006
											CHANNELS 3 Zrotation Yrotation Xrotation
											End Site
											{
												OFFSET 0.000000 0.000000 0.000000
											}
										}
									}
								}
								JOINT LeftRing1
								{
									OFFSET 25.199986 0.000029 0.000006
									CHANNELS 3 Zrotation Yrotation Xrotation
									JOINT LeftRing2
									{
										OFFSET 25.199986 0.000029 0.000006
										CHANNELS 3 Zrotation Yrotation Xrotation
										JOINT LeftRing3
										{
											OFFSET 25.199986 0.000029 0.000006
											CHANNELS 3 Zrotation Yrotation Xrotation
											End Site
											{
												OFFSET 0.000000 0.000000 0.000000
											}
										}
									}
								}
								JOINT LeftPinky1
								{
									OFFSET 25.199986 0.000029 0.000006
									CHANNELS 3 Zrotation Yrotation Xrotation
									JOINT LeftPinky2
									{
										OFFSET 25.199986 0.000029 0.000006
										CHANNELS 3 Zrotation Yrotation Xrotation
										JOINT LeftPinky3
										{
											OFFSET 25.199986 0.000029 0.000006
											CHANNELS 3 Zrotation Yrotation Xrotation
											End Site
											{
												OFFSET 0.000000 0.000000 0.000000
											}
										}
									}
								}
							}
						}
					}
				}
				JOINT RightShoulder
				{
					OFFSET 19.746086 -1.480392 -6.000091
					CHANNELS 3 Zrotation Yrotation Xrotation
					JOINT RightArm
					{
						OFFSET 11.284138 -0.000036 -0.000015
						CHANNELS 3 Zrotation Yrotation Xrotation
						JOINT RightForeArm
						{
							OFFSET 33.000099 0.000026 0.000006
							CHANNELS 3 Zrotation Yrotation Xrotation
							JOINT RightHand
							{
								OFFSET 25.199776 0.000139 0.000412
								CHANNELS 3 Zrotation Yrotation Xrotation
								JOINT RightThumb1
								{
									OFFSET 25.199986 0.000029 0.000006
									CHANNELS 3 Zrotation Yrotation Xrotation
									JOINT RightThumb2
									{
										OFFSET 25.199986 0.000029 0.000006
										CHANNELS 3 Zrotation Yrotation Xrotation
										JOINT RightThumb3
										{
											OFFSET 25.199986 0.000029 0.000006
											CHANNELS 3 Zrotation Yrotation Xrotation
											End Site
											{
												OFFSET 0.000000 0.000000 0.000000
											}
										}
									}
								}
								JOINT RightIndex1
								{
									OFFSET 25.199986 0.000029 0.000006
									CHANNELS 3 Zrotation Yrotation Xrotation
									JOINT RightIndex2
									{
										OFFSET 25.199986 0.000029 0.000006
										CHANNELS 3 Zrotation Yrotation Xrotation
										JOINT RightIndex3
										{
											OFFSET 25.199986 0.000029 0.000006
											CHANNELS 3 Zrotation Yrotation Xrotation
											End Site
											{
												OFFSET 0.000000 0.000000 0.000000
											}
										}
									}
								}
								JOINT RightMiddle1
								{
									OFFSET 25.199986 0.000029 0.000006
									CHANNELS 3 Zrotation Yrotation Xrotation
									JOINT RightMiddle2
									{
										OFFSET 25.199986 0.000029 0.000006
										CHANNELS 3 Zrotation Yrotation Xrotation
										JOINT RightMiddle3
										{
											OFFSET 25.199986 0.000029 0.000006
											CHANNELS 3 Zrotation Yrotation Xrotation
											End Site
											{
												OFFSET 0.000000 0.000000 0.000000
											}
										}
									}
								}
								JOINT RightRing1
								{
									OFFSET 25.199986 0.000029 0.000006
									CHANNELS 3 Zrotation Yrotation Xrotation
									JOINT RightRing2
									{
										OFFSET 25.199986 0.000029 0.000006
										CHANNELS 3 Zrotation Yrotation Xrotation
										JOINT RightRing3
										{
											OFFSET 25.199986 0.000029 0.000006
											CHANNELS 3 Zrotation Yrotation Xrotation
											End Site
											{
												OFFSET 0.000000 0.000000 0.000000
											}
										}
									}
								}
								JOINT RightPinky1
								{
									OFFSET 25.199986 0.000029 0.000006
									CHANNELS 3 Zrotation Yrotation Xrotation
									JOINT RightPinky2
									{
										OFFSET 25.199986 0.000029 0.000006
										CHANNELS 3 Zrotation Yrotation Xrotation
										JOINT RightPinky3
										{
											OFFSET 25.199986 0.000029 0.000006
											CHANNELS 3 Zrotation Yrotation Xrotation
											End Site
											{
												OFFSET 0.000000 0.000000 0.000000
											}
										}
									}
								}
							}
						}
					}
				}
			}
		}
	}
}
MOTION
Frames: 5
Frame Time: 120.0
-0.017580 0.266977 1.022794 68.973945 60.941210 69.933734 -12.901903 -4.288234 -2.824489 6.903364 4.458910 0.690977 4.380390 2.148261 -2.370779 14.328478 -1.439244 -1.206384 1.926450 -3.185883 0.805645 0.000000 0.000000 0.000000 9.958215 7.104919 -1.058685 -8.482014 10.434963 3.907805 0.000000 0.000000 0.000000 3.592601 5.586336 -2.283085 -13.289872 -4.476963 5.582095 3.485629 -3.019148 -0.826277 -1.525198 13.114485 18.592341 -10.090983 -7.568376 -21.391641 4.391255 -2.331074 -24.713528 1.650920 -4.397276 -0.440618 48.756662 15.866504 -5.245318 11.676114 -6.596588 -66.927230 -28.638690 1.521574 3.029851 5.192556 28.163788 51.795899 30.685279 2.633374 -15.891444 14.843215 -29.505787 12.938553 9.235137 40.515398 -11.940787 -4.808009 -3.479603 23.409101 4.495228 7.914416 -21.742332 6.398719 2.457541 -23.860360 6.234430 -3.780701 -43.328215 -5.522910 -5.209084 -10.797922 -6.766347 2.918868 -30.342957 -8.233312 3.165116 -40.385339 -1.099100 -5.290512 -19.361019 -26.186061 -11.246242 -35.836077 -12.298675 -3.781423 -29.042899 -21.183645 -3.457492 -4.554455 -8.128535 -4.918994 -36.413087 -17.380193 -3.316336 -36.175937 6.398719 -2.457541 23.860360 6.234430 3.780701 43.328215 -5.522910 5.209084 10.797922 -6.766347 -2.918868 30.342957 -8.233312 -3.165116 40.385339 -1.099100 5.290512 19.361019 -26.186061 11.246242 35.836077 -12.298675 3.781423 29.042899 -21.183645 3.457492 4.554455 -8.128535 4.918994 36.413087 -17.380193 3.316336 36.175937 -10.090983 7.568376 21.391641 48.756662 -15.866504 5.245318 -28.638690 -1.521574 -3.029851 30.685279 -2.633374 15.891444
-0.017142 0.267296 1.021530 69.010690 60.968226 69.805074 -12.614603 -4.460074 -2.724808 7.325662 4.536291 0.751885 4.388419 2.091808 -2.332743 14.468387 -1.361472 -1.261279 1.947056 -3.209747 0.889135 0.000000 0.000000 0.000000 9.747243 7.152865 -1.038318 -8.753799 10.561629 3.708934 0.000000 0.000000 0.000000 3.080164 6.138410 -2.569518 -13.629832 -4.517261 5.785342 3.446612 -2.913016 -0.655221 -1.670320 13.003204 18.618501 -10.090983 -7.568376 -21.391641 4.367262 -2.210139 -24.710502 1.705333 -4.514506 -0.609794 48.756662 15.866504 -5.245318 11.786627 -6.450204 -66.968915 -28.638690 1.521574 3.029851 5.273352 28.435572 51.676114 30.685279 2.633374 -15.891444 14.781171 -29.384818 12.768978 9.158444 41.347874 -11.998589 -4.852346 -3.674897 23.298175 4.223383 8.146837 -21.839445 6.398719 2.457541 -23.860360 6.234430 -3.780701 -43.328215 -5.522910 -5.209084 -10.797922 -6.766347 2.918868 -30.342957 -8.233312 3.165116 -40.385339 -1.099100 -5.290512 -19.361019 -26.186061 -11.246242 -35.836077 -12.298675 -3.781423 -29.042899 -21.183645 -3.457492 -4.554455 -8.128535 -4.918994 -36.413087 -17.380193 -3.316336 -36.175937 6.398719 -2.457541 23.860360 6.234430 3.780701 43.328215 -5.522910 5.209084 10.797922 -6.766347 -2.918868 30.342957 -8.233312 -3.165116 40.385339 -1.099100 5.290512 19.361019 -26.186061 11.246242 35.836077 -12.298675 3.781423 29.042899 -21.183645 3.457492 4.554455 -8.128535 4.918994 36.413087 -17.380193 3.316336 36.175937 -10.090983 7.568376 21.391641 48.756662 -15.866504 5.245318 -28.638690 -1.521574 -3.029851 30.685279 -2.633374 15.891444
-0.016775 0.267620 1.020496 69.093486 60.882177 69.726046 -12.205627 -4.620299 -2.806969 7.817376 4.731434 0.751506 4.437905 2.037014 -2.289300 14.630572 -1.184879 -1.383950 1.984739 -3.189735 0.977536 0.000000 0.000000 0.000000 9.596686 7.214892 -1.134121 -9.040537 10.709200 3.463407 0.000000 0.000000 0.000000 2.621559 6.568307 -2.722740 -13.884044 -4.533146 5.903374 3.319659 -2.708537 -0.428852 -1.868970 12.861594 18.658795 -10.090983 -7.568376 -21.391641 4.326646 -2.097725 -24.733669 1.785606 -4.577159 -0.798872 48.756662 15.866504 -5.245318 11.861614 -6.370427 -67.012827 -28.638690 1.521574 3.029851 5.400488 28.701453 51.579873 30.685279 2.633374 -15.891444 14.723898 -29.215418 12.724527 9.154477 42.126423 -12.136686 -4.759760 -3.961091 23.121285 4.176280 8.463158 -21.987242 6.398719 2.457541 -23.860360 6.234430 -3.780701 -43.328215 -5.522910 -5.209084 -10.797922 -6.766347 2.918868 -30.342957 -8.233312 3.165116 -40.385339 -1.099100 -5.290512 -19.361019 -26.186061 -11.246242 -35.836077 -12.298675 -3.781423 -29.042899 -21.183645 -3.457492 -4.554455 -8.128535 -4.918994 -36.413087 -17.380193 -3.316336 -36.175937 6.398719 -2.457541 23.860360 6.234430 3.780701 43.328215 -5.522910 5.209084 10.797922 -6.766347 -2.918868 30.342957 -8.233312 -3.165116 40.385339 -1.099100 5.290512 19.361019 -26.186061 11.246242 35.836077 -12.298675 3.781423 29.042899 -21.183645 3.457492 4.554455 -8.128535 4.918994 36.413087 -17.380193 3.316336 36.175937 -10.090983 7.568376 21.391641 48.756662 -15.866504 5.245318 -28.638690 -1.521574 -3.029851 30.685279 -2.633374 15.891444
-0.016411 0.267731 1.019716 69.195012 60.687577 69.761075 -11.802084 -4.813929 -3.015648 8.389815 5.028176 0.650917 4.451466 2.004313 -2.278056 14.812395 -1.022547 -1.570799 1.919034 -3.200806 1.161902 0.000000 0.000000 0.000000 9.627144 7.279855 -1.441899 -8.934149 10.580971 3.379028 0.000000 0.000000 0.000000 2.540694 6.547083 -2.718860 -14.126266 -4.575396 6.026758 3.280483 -2.511582 -0.224873 -2.024865 12.757026 18.771492 -10.090983 -7.568376 -21.391641 4.366817 -1.994541 -24.734730 1.829935 -4.578552 -0.919999 48.756662 15.866504 -5.245318 11.891031 -6.277570 -67.075839 -28.638690 1.521574 3.029851 5.563071 28.909693 51.463625 30.685279 2.633374 -15.891444 14.777399 -29.101067 12.848756 9.041968 42.945290 -12.268086 -4.598547 -4.247976 22.764113 3.982196 8.874109 -22.063526 6.398719 2.457541 -23.860360 6.234430 -3.780701 -43.328215 -5.522910 -5.209084 -10.797922 -6.766347 2.918868 -30.342957 -8.233312 3.165116 -40.385339 -1.099100 -5.290512 -19.361019 -26.186061 -11.246242 -35.836077 -12.298675 -3.781423 -29.042899 -21.183645 -3.457492 -4.554455 -8.128535 -4.918994 -36.413087 -17.380193 -3.316336 -36.175937 6.398719 -2.457541 23.860360 6.234430 3.780701 43.328215 -5.522910 5.209084 10.797922 -6.766347 -2.918868 30.342957 -8.233312 -3.165116 40.385339 -1.099100 5.290512 19.361019 -26.186061 11.246242 35.836077 -12.298675 3.781423 29.042899 -21.183645 3.457492 4.554455 -8.128535 4.918994 36.413087 -17.380193 3.316336 36.175937 -10.090983 7.568376 21.391641 48.756662 -15.866504 5.245318 -28.638690 -1.521574 -3.029851 30.685279 -2.633374 15.891444
-0.015703 0.267831 1.018748 69.198974 60.611143 69.690311 -11.615300 -4.889442 -3.087043 9.135054 5.336127 0.622099 4.496055 1.982761 -2.251011 14.897361 -1.023383 -1.632409 1.865047 -3.244324 1.289191 0.000000 0.000000 0.000000 9.539433 7.306495 -1.535908 -9.105018 10.450660 3.376990 0.000000 0.000000 0.000000 3.061533 6.338352 -2.773009 -14.319314 -4.531453 6.040575 3.200915 -2.364857 -0.059912 -2.143320 12.641641 18.774988 -10.090983 -7.568376 -21.391641 4.367122 -1.851987 -24.653025 1.869846 -4.525696 -0.983711 48.756662 15.866504 -5.245318 11.917165 -6.123125 -67.199244 -28.638690 1.521574 3.029851 5.680755 29.042424 51.474588 30.685279 2.633374 -15.891444 14.861466 -29.098198 12.830422 9.015819 43.795736 -12.374479 -4.698052 -4.399995 22.600471 3.729761 9.271732 -22.048834 6.398719 2.457541 -23.860360 6.234430 -3.780701 -43.328215 -5.522910 -5.209084 -10.797922 -6.766347 2.918868 -30.342957 -8.233312 3.165116 -40.385339 -1.099100 -5.290512 -19.361019 -26.186061 -11.246242 -35.836077 -12.298675 -3.781423 -29.042899 -21.183645 -3.457492 -4.554455 -8.128535 -4.918994 -36.413087 -17.380193 -3.316336 -36.175937 6.398719 -2.457541 23.860360 6.234430 3.780701 43.328215 -5.522910 5.209084 10.797922 -6.766347 -2.918868 30.342957 -8.233312 -3.165116 40.385339 -1.099100 5.290512 19.361019 -26.186061 11.246242 35.836077 -12.298675 3.781423 29.042899 -21.183645 3.457492 4.554455 -8.128535 4.918994 36.413087 -17.380193 3.316336 36.175937 -10.090983 7.568376 21.391641 48.756662 -15.866504 5.245318 -28.638690 -1.521574 -3.029851 30.685279 -2.633374 15.891444
